<svg xmlns="http://www.w3.org/2000/svg" width="544.087" height="228.552" viewBox="0 0 544.087 228.552">
  <g id="group_137" data-name="group 137" transform="translate(0 0)">
    <path id="path_651" data-name="path 651" d="M538.8,90.876,525.272,76.963H387.1C372.613,54.211,328.45,23.7,270.078,23.7c-55.73,0-99.961,28.463-117.019,53.261H14.884L1.357,90.876v86.15L14.884,190.94H525.272L538.8,177.026Z" transform="translate(1.966 34.294)" fill="#fff"/>
    <path id="path_652" data-name="path 652" d="M528.639,196.221H15.447L0,180.336V91.491L15.447,75.606H153.3c18.751-25.926,63.34-53.261,118.736-53.261a166.329,166.329,0,0,1,76.5,18.475C366.97,50.4,382.274,63,390.85,75.606H528.639l15.448,15.886v88.844Zm-510.39-6.639H525.837l11.608-11.941V94.188L525.837,82.244H387.243l-.979-1.537c-12.734-20-55-51.724-114.224-51.724-39.076,0-90.878,17.8-114.285,51.822l-.989,1.439H18.248L6.64,94.188v83.454Z" transform="translate(0.001 32.331)" fill="#40210f"/>
    <path id="path_653" data-name="path 653" d="M514.492,173.281H12.967l-7.223-7.431V88.927L12.963,81.5h139.4c12.565-22.485,54.655-53.261,111.364-53.261,62.427,0,99.31,34.253,110.769,53.261h140l7.223,7.429v76.923Zm-499.817-4.04H512.784l4.891-5.033V90.569l-4.889-5.028H372.172l-.585-1.018c-10.326-18.071-46.155-52.245-107.86-52.245-55.94,0-97.049,30.511-108.369,52.177l-.565,1.086H14.675L9.784,90.569V164.21Z" transform="translate(8.314 40.856)" fill="#e50012"/>
    <path id="path_654" data-name="path 654" d="M83.016,107.131c-.741-1.023-11.322-16.1-11.322-16.1a.95.95,0,0,1,0-1.329s8.963-12.685,9.773-13.759c1.038-1.373.807-2.687-.536-3.157-1.845-.646-4.385-1.522-5.511-1.882-1.679-.538-2.511.157-3.56,1.613s-10.515,14.8-10.515,14.8c-.369.392-.582.514-.869.514-.409,0-.785-.137-.785-1.143,0,0,.125-25.054,0-26.4a2.384,2.384,0,0,0-2.812-2.285,57.864,57.864,0,0,0-6.751.749c-1.444.325-2.17,1.534-2.17,3.281V108.8c0,1.786.856,2.917,2.606,2.936a38.857,38.857,0,0,0,6.453-1.1c1.754-.352,2.675-1.167,2.819-3.582s-.144-12.893-.144-12.893c0-1.223.57-1.223.785-1.223.291,0,.509.215.832.546,0,0,10.544,15.553,11.454,16.779a3.779,3.779,0,0,0,3.7,1.642,43.408,43.408,0,0,0,5.9-1.652,2.112,2.112,0,0,0,.653-3.115" transform="translate(69.396 83.924)" fill="#40210f"/>
    <path id="path_655" data-name="path 655" d="M28.186,58.118H16.616c-2.418,0-3.653,1.334-3.653,4.02v46.218c0,1.882,1,2.975,3.174,3.034a28.1,28.1,0,0,0,6.2-.5c1.887-.379,3.333-1.326,3.416-3.741s.186-13.958.186-13.958c0-.947.5-1.067.93-1.067h.952c.369,0,1.233,0,2.5.073a33.494,33.494,0,0,0,8.848-1.4,12.237,12.237,0,0,0,7.045-5.741,19.455,19.455,0,0,0,2.672-9.749c0-11.408-6.964-17.192-20.7-17.192M26.086,69.4c0-.94.414-1.072.856-1.072H28.77c2.907,0,5,.325,6.22.969,2.095,1.025,3.115,2.966,3.115,6.01,0,4.7-3.054,6.976-9.335,6.976H26.943c-.443,0-.856-.12-.856-.989Z" transform="translate(18.759 84.093)" fill="#40210f"/>
    <path id="path_656" data-name="path 656" d="M62.066,70.382c-3.524-3.883-8.117-5.77-14.041-5.77a17.86,17.86,0,0,0-13.688,6.046,19.591,19.591,0,0,0,0,26.334,18.255,18.255,0,0,0,13.9,5.975,17.633,17.633,0,0,0,13.691-6.051,20.277,20.277,0,0,0,.137-26.535M54.38,92.265a7.806,7.806,0,0,1-5.824,2.317,8.825,8.825,0,0,1-6.223-2.4c-1.965-1.855-2.858-5.692-2.858-8.469a12.836,12.836,0,0,1,2.234-7.537,7.624,7.624,0,0,1,6.321-3.254h.132a8.176,8.176,0,0,1,6.592,3.056,12.573,12.573,0,0,1,2.293,7.6c0,2.973-.825,6.812-2.667,8.682" transform="translate(42.333 93.49)" fill="#40210f"/>
    <path id="path_657" data-name="path 657" d="M68.68,66.671l6.3,2.144-2.831,8.579a1.371,1.371,0,0,0,.113,1.268.9.9,0,0,0,.734.362,1.474,1.474,0,0,0,1.052-.531L85.525,65.944a.992.992,0,0,0,.3-.967,1.182,1.182,0,0,0-.9-.8l-7.1-.859,4.312-9.176c.235-.749.237-1.221.012-1.529-.357-.485-1.113-.352-2.09.536S68.57,64.464,68.129,64.9a1,1,0,0,0-.387.925c.105.524.719.759.937.842" transform="translate(98.002 75.726)" fill="#40210f"/>
    <path id="path_658" data-name="path 658" d="M96.587,73.179c-3.188-5.936-8.077-8.834-14.148-8.834a17.177,17.177,0,0,0-13.647,6.029,19.926,19.926,0,0,0-4.512,13.2v.208A19.4,19.4,0,0,0,69,96.995a17.991,17.991,0,0,0,13.772,5.814h.2c3.739,0,7.9-.768,11.2-4.135,1.086-1.108,1.27-2.151.67-3.223s-1.674-2.929-2.283-3.807a2.053,2.053,0,0,0-3.022-.426,12.162,12.162,0,0,1-5.777,2.273h-.788c-3.046,0-5.121-.842-6.387-2.626a.646.646,0,0,1-.206-.448c0-.213.066-.374.4-.675,0,0,18.022-12.634,19.138-13.37a2.267,2.267,0,0,0,.675-3.193m-20.9,3.071a7.868,7.868,0,0,1,6.484-3.413,7.154,7.154,0,0,1,4.346,1.241.927.927,0,0,1,.338.732.711.711,0,0,1-.335.666l-12.169,8.5a.778.778,0,0,1-.4.127c-.215,0-.538,0-.538-.8a11.641,11.641,0,0,1,2.276-7.052" transform="translate(93.013 93.103)" fill="#40210f"/>
    <path id="path_659" data-name="path 659" d="M227.805,73.179c-3.188-5.936-8.077-8.834-14.148-8.834a17.177,17.177,0,0,0-13.647,6.029,19.926,19.926,0,0,0-4.512,13.2v.208a19.4,19.4,0,0,0,4.715,13.209,17.991,17.991,0,0,0,13.771,5.814h.2c3.739,0,7.9-.768,11.2-4.135,1.086-1.108,1.27-2.151.67-3.223s-1.674-2.929-2.283-3.807a2.053,2.053,0,0,0-3.022-.426,12.161,12.161,0,0,1-5.777,2.273h-.788c-3.046,0-5.121-.842-6.387-2.626a.646.646,0,0,1-.206-.448c0-.213.066-.374.4-.675,0,0,18.022-12.634,19.138-13.37a2.267,2.267,0,0,0,.675-3.193m-20.9,3.071a7.868,7.868,0,0,1,6.484-3.413,7.154,7.154,0,0,1,4.346,1.241.927.927,0,0,1,.338.732.711.711,0,0,1-.335.666l-12.169,8.5a.778.778,0,0,1-.4.127c-.215,0-.538,0-.538-.8a11.642,11.642,0,0,1,2.276-7.052" transform="translate(282.881 93.103)" fill="#40210f"/>
    <path id="path_660" data-name="path 660" d="M128.868,66.629a10.844,10.844,0,0,0-8.714-3.793h-.22a11.15,11.15,0,0,0-8.971,4.434c-.33.414-.6.815-1.138.918-.563.105-.639-.455-.717-.629a7.45,7.45,0,0,0-7.152-4.8c-3.289,0-5.863,1.077-7.466,3.179-.688.905-.888,1.644-1.424,1.441-.595-.223-.805-.44-.807-1.008,0-.44.034-.7,0-1.275-.061-.94-1.108-1.576-2.246-1.546s-5.432.492-6.715.717-2,.83-2.043,2.577.056,34.027-.044,35.669c-.115,1.872.741,2.924,2.821,2.721,1.742-.169,4.911-.462,6.489-.648a2.62,2.62,0,0,0,2.515-2.574c.037-1.343.024-19.911.024-19.911a20.024,20.024,0,0,1,.641-6.186,5.033,5.033,0,0,1,2.946-3.042,5.516,5.516,0,0,1,2.369-.406c2.516.223,3.727,2.956,3.727,8.1,0,0-.032,20.234,0,21.846.032,1.847.67,2.924,2.523,2.836,1.681-.081,3.768-.286,4.769-.4a2.557,2.557,0,0,0,2.4-2.665c.02-1.412,0-19.387,0-19.387.02-1-.049-2.547-.015-3.489.166-4.679,1.759-6.788,5.623-6.788,2.878,0,4.219,2.462,4.219,7.745,0,0-.066,20.674-.034,22.387s.68,2.613,2.523,2.484c1.015-.073,2.961-.142,4.5-.311,2.016-.223,2.52-1.2,2.552-3.144s0-26.327,0-26.327a13,13,0,0,0-2.924-8.721" transform="translate(117.493 90.81)" fill="#40210f"/>
    <path id="path_661" data-name="path 661" d="M153.826,66.926a9.347,9.347,0,0,0-7.926-4.042c-3.409,0-6.064.967-8.188,3.462a6.215,6.215,0,0,1-1.013,1.045c-.281.179-.5.081-.891-.137a1.029,1.029,0,0,1-.507-1c-.007-.3-.012-.7-.012-1.209,0-.805-.712-1.693-2.462-1.539s-3.8.338-5.868.631-2.582,1.143-2.6,3.147c-.073,8.427,0,33.154,0,34.71,0,2.239.644,3.264,2.64,3.135s4.524-.448,6.5-.793c1.676-.291,2.41-1.268,2.5-3.105s.046-20.158.046-20.158c0-5.853,1.789-8.819,5.315-8.819s5.317,2.966,5.317,8.819c0,0,.044,18.815.024,21.01-.017,2.1.538,3.046,2.733,2.919,1.162-.066,3.042-.267,4.522-.5,1.7-.269,2.359-1.343,2.42-3.316s-.015-25.793-.015-25.793a14.032,14.032,0,0,0-2.545-8.471" transform="translate(179.906 90.989)" fill="#40210f"/>
    <path id="path_662" data-name="path 662" d="M184.175,99.511a13.971,13.971,0,0,1-6.913,1.732c-9.081,0-15.183-8.332-15.183-16.111A15.849,15.849,0,0,1,177.7,69.1a15.525,15.525,0,0,1,6.037,1.387c1.649.68,2.148-.12,2.048-1.4-.2-2.555-.722-5.824-.964-7.2-.374-2.136-1.113-2.809-2.985-3.318a19.786,19.786,0,0,0-5.232-.6h-2.63c-17.557,0-25.453,15.888-25.453,27.171,0,16.25,11.05,27.171,27.5,27.171A17.866,17.866,0,0,0,183,111.158a3.366,3.366,0,0,0,2.053-3.022c.414-2.56.871-6.754.937-7.537a1.14,1.14,0,0,0-1.813-1.089" transform="translate(214.906 83.866)" fill="#40210f"/>
    <path id="path_663" data-name="path 663" d="M194.163,67.084c-2.562-2.185-6.979-2.523-9.382-2.513A32.694,32.694,0,0,0,176.8,65.7a3.437,3.437,0,0,0-2.6,2.687A39.44,39.44,0,0,0,173.362,73c-.147,1.3.793,1.613,1.657,1.241a15.906,15.906,0,0,1,6.081-1.52h.328a8.514,8.514,0,0,1,4.745,1.187,6.392,6.392,0,0,1,2.232,2.569,5.785,5.785,0,0,1,.409,2.7c0,.93-.443.93-.609.93a1.405,1.405,0,0,1-.859-.343,11.372,11.372,0,0,0-7.1-2.763c-3.213,0-7.48,1.143-9.763,3.685-2.148,2.261-3.11,6.524-3.11,9.751a12.776,12.776,0,0,0,2.973,8.5c2.288,2.55,6.621,3.692,9.9,3.692h.132a9.626,9.626,0,0,0,4-.918,7.462,7.462,0,0,0,3.02-1.909,1.059,1.059,0,0,1,1.131-.428.952.952,0,0,1,.612,1.035c0,.11,0,.23.007.362.017.582.24,1.2,1.5,1.116s4.524-.414,5.824-.609,1.855-.913,1.889-2.344,0-22.931,0-22.931a11.273,11.273,0,0,0-4.184-8.917m-5.484,22.8a6.127,6.127,0,0,1-1.5,4.346,5.051,5.051,0,0,1-4.108,1.556,5.593,5.593,0,0,1-4-1.373,5.867,5.867,0,0,1-1.87-4.6A6.153,6.153,0,0,1,178.76,85.4a5.592,5.592,0,0,1,4.246-1.835,5.316,5.316,0,0,1,4.17,1.823,6.649,6.649,0,0,1,1.5,4.5" transform="translate(242.18 93.43)" fill="#40210f"/>
    <path id="path_664" data-name="path 664" d="M208.635,64.98a55.919,55.919,0,0,0-1.436-5.6,1.989,1.989,0,0,0-1.989-1.434c-5.273.157-9.71,1.676-12.152,4.033-2.254,2.232-3.639,5.43-4.206,9.744-.083.631-.125,2.381-.125,2.525v.154c0,.715-.262.991-.93.991,0,0-.556-.02-1.439,0a1.618,1.618,0,0,0-1.708,1.378c-.511,1.657-1.184,4.747-1.412,5.8-.318,1.488-.115,2.087,1.15,2.117s3.335,0,3.335,0c.433,0,.932.12.932,1.067,0,0-.032,22.226,0,23.922s.485,2,1.679,1.906c2.148-.171,6.215-.644,7.368-.759,1.588-.159,1.977-.866,1.984-2.183s.017-23.038.017-23.038c0-.888.345-1.069.859-1.069,0,0,3.675.02,4.992,0s1.517-.754,1.539-1.764c.042-1.9.02-5.073-.007-5.892-.039-1.189-.6-1.644-1.48-1.669-2.618-.069-3.957-.127-4.732-.23a1.867,1.867,0,0,1-1.135-.428,1.346,1.346,0,0,1-.4-1.074,6.373,6.373,0,0,1,2.67-4.825,7.211,7.211,0,0,1,4.84-1.845c.252,0,.494-.007.729.007,1.062.073,1.27-.712,1.057-1.84" transform="translate(264.949 83.848)" fill="#40210f"/>
    <path id="path_665" data-name="path 665" d="M138.161,70.379c-3.529-3.886-8.126-5.775-14.053-5.775A17.883,17.883,0,0,0,110.4,70.658a19.608,19.608,0,0,0,0,26.359A18.274,18.274,0,0,0,124.318,103a17.656,17.656,0,0,0,13.705-6.056,20.3,20.3,0,0,0,.137-26.562m-21.012,5.077a8.38,8.38,0,0,1,6.942-3.575h.144a8.971,8.971,0,0,1,7.233,3.357,13.043,13.043,0,0,1,2.413,6.891H129.53c-.577-3.012-2.719-5.268-5.285-5.268s-4.708,2.256-5.283,5.268h-4.15a13.381,13.381,0,0,1,2.337-6.673m9.5,8.273c0,1.989-1.1,3.668-2.4,3.668s-2.4-1.679-2.4-3.668,1.1-3.668,2.4-3.668,2.4,1.681,2.4,3.668m-7.686,1.6c.575,3.015,2.719,5.266,5.283,5.266s4.71-2.251,5.285-5.266H133.9c-.262,2.9-1.162,6.076-2.836,7.774a8.566,8.566,0,0,1-6.394,2.547,9.69,9.69,0,0,1-6.832-2.63c-1.8-1.7-2.768-4.9-3.044-7.691Z" transform="translate(152.39 93.478)" fill="#40210f"/>
    <path id="path_666" data-name="path 666" d="M242.827,44.727a31.053,31.053,0,0,0,.832-3.639,19.844,19.844,0,0,0,.188-4.539,15.363,15.363,0,0,0-.494-2.768c-.056-.24-.12-.477-.188-.715-.039-.122-.081-.242-.122-.362a13.159,13.159,0,0,0-2.829-4.891c-9.213-10.055-25-1.642-31.556,2.175-.749.421-1.5.844-2.259,1.3a23.522,23.522,0,0,0-1.534-6.438,24.371,24.371,0,0,0-14.376-14.134,26.15,26.15,0,0,0-8.6-1.527,27.841,27.841,0,0,0-7.97-5.961c-.032-.015-.066-.032-.1-.049-.609-.3-1.223-.592-1.857-.854-.323-.137-.653-.259-.984-.384-.462-.174-.923-.35-1.4-.5-.426-.137-.861-.245-1.294-.36A30.618,30.618,0,0,0,161,.011a27.19,27.19,0,0,0-21.58,9.34,27.667,27.667,0,0,0-8.743,1.6c-.059.02-.115.032-.174.051a22.824,22.824,0,0,0-8.466,5.263,24.017,24.017,0,0,0-5.785,8.64,24.591,24.591,0,0,0-1.49,6.017c-.132-.086-.245-.191-.382-.272-5.082-3-19.458-11.457-29.435-5.457a14.249,14.249,0,0,0-3.506,2.743,13.821,13.821,0,0,0-3.352,6.624c-.015.081-.02.171-.034.252a15.294,15.294,0,0,0-.235,1.654,19.206,19.206,0,0,0,.181,4.5c.93,6.1,4.96,15.316,11.843,24.871a119.534,119.534,0,0,0,11.728,13.544,99.446,99.446,0,0,0,8.577,7.453,46.161,46.161,0,0,0-2.567,19.385,39.454,39.454,0,0,0,13.307,25.625c.223.208.44.414.67.619.257.223.507.448.771.666a45.689,45.689,0,0,0,15.959,8.765c.21.073.438.13.651.2.778.242,1.569.477,2.4.695a71.935,71.935,0,0,0,19.676,2.613l.477,0c27.849-.154,48.944-15.565,52.49-38.346a41.06,41.06,0,0,0-2.244-20.016,98.22,98.22,0,0,0,9.321-8.212,12.693,12.693,0,0,0,1.4-1.177c5.493-5.684,16.456-19.473,20.136-32.048l.02-.064c.078-.274.152-.543.223-.815" transform="translate(112.511 -0.001)" fill="#40210f"/>
    <path id="path_667" data-name="path 667" d="M236.425,34.835a11.611,11.611,0,0,0-.247-1.936c-.032-.169-.027-.362-.069-.529s-.127-.311-.176-.475a8.613,8.613,0,0,0-1.958-3.688c-4.412-4.816-12.068-4.238-23.322,1.747a92.071,92.071,0,0,0-13.118,8.354c.024-.064.051-.125.076-.188.049-.122.1-.245.147-.369.11-.306.206-.612.3-.92a19.033,19.033,0,0,0-.335-13.023A19.724,19.724,0,0,0,186.1,12.35a21.692,21.692,0,0,0-9.081-1.2,22.737,22.737,0,0,0-11.1-7.865c-.169-.056-.345-.1-.514-.154a26.522,26.522,0,0,0-7.292-1.2,22.671,22.671,0,0,0-19.294,9.394,23.076,23.076,0,0,0-9.436,1.3l-.034.015-.076.02a17.9,17.9,0,0,0-7.975,5.5,19.468,19.468,0,0,0-3.46,5.687,19.889,19.889,0,0,0-1.126,10.343,17.882,17.882,0,0,0,.825,3.555c-.139-.105-.279-.2-.416-.3-.462-.34-.918-.656-1.378-.984-.683-.484-1.363-.969-2.043-1.427-.482-.325-.959-.631-1.439-.942-.536-.347-1.069-.7-1.6-1.028a7.887,7.887,0,0,0-1.458-1.145c-11.337-6.7-19.4-8.525-24.536-5.55l-.237.127c-.039.024-.076.049-.113.071a9.606,9.606,0,0,0-2.2,1.767,8.935,8.935,0,0,0-1.309,1.85c-.022.039-.027.083-.046.12A9.415,9.415,0,0,0,80,32.329c-.044.176-.039.379-.073.56a11.256,11.256,0,0,0-.242,1.857,15.715,15.715,0,0,0,.181,2.738c.548,3.6,2.65,9.117,6.257,15.379q.477.837.974,1.666c.081.132.159.262.24.4,3.913,6.445,13.772,17.584,14.351,17.931a92.933,92.933,0,0,0,11.4,9.585,41.5,41.5,0,0,0-3.6,20.591A33.285,33.285,0,0,0,123.072,127.2c4.869,4.067,11.726,7.772,22.258,9.467a68.267,68.267,0,0,0,12.984,1.258h.365c25.857-.142,44.65-13.635,47.875-34.37,1.113-7.15-.56-14.726-3.321-20.9a91.27,91.27,0,0,0,11.692-9.94,7.744,7.744,0,0,0,1.37-1.111c6.812-7.047,16.013-19.8,19.028-30.254a26.021,26.021,0,0,0,.915-3.751,15.869,15.869,0,0,0,.188-2.768" transform="translate(115.29 2.778)" fill="#fff"/>
    <path id="path_668" data-name="path 668" d="M109.747,63.484c0-7.774-.389-22.745-.7-24.142-5.053-1.713-14.486-6.636-9.876-17.887,3.888-9.484,15.71-6.531,17.109-5.755,2.8-6.842,8.085-10.73,15.24-10.576s13.064,4.2,14.929,10.265c5.288-2.021,14.711-1.534,17.731,7.933,2.332,7.307-3.849,14.657-9.758,15.9-.117,9.213-.7,22.316-.7,24.492-4.977-2.794-15.049-5.131-22.358-5.131s-16.329,1.478-21.616,4.9" transform="translate(141.715 7.406)" fill="#fff"/>
    <path id="path_669" data-name="path 669" d="M119.21,98.645a28.245,28.245,0,0,1-6.56-18,32.608,32.608,0,0,1,6.423-19.01c-26.479-15.4-38.6-43.316-35.809-46.358,3.812-4.16,33.883,11.17,47.762,35.2l-.083.639c4.982-3.81,13.294-5.966,22.378-5.966,8.8,0,16.835,1.639,22.363,5.371l.132-.044c13.882-24.027,43.95-39.357,47.762-35.2,2.79,3.042-8.983,31.1-35.459,46.495,3.732,4.977,6.073,13.742,6.073,18.873,0,7.006-3.152,13.267-6.766,17.721-2.393,2.956-13.011,13.108-33.692,13.108s-29.251-6.766-34.524-12.832" transform="translate(119.915 21.123)" fill="#ffe100"/>
    <path id="path_670" data-name="path 670" d="M103.143,36.927a2.02,2.02,0,0,1-1.16-3.675c4.569-3.2,12.6-7.013,24.93-7.013a49.37,49.37,0,0,1,25.2,6.448,2.022,2.022,0,0,1-2.009,3.509,45.4,45.4,0,0,0-23.195-5.914c-11.273,0-18.519,3.416-22.612,6.281a2.006,2.006,0,0,1-1.157.365" transform="translate(146.322 37.965)" fill="#40210f"/>
    <path id="path_671" data-name="path 671" d="M154.875,114.981c-19.551,0-41.261-9.225-43.045-29.594a35.285,35.285,0,0,1,5.606-22.216C95.416,49.554,83.446,27.806,82.168,19.417c-.3-1.977-.039-3.382.8-4.3.993-1.079,2.6-1.512,4.784-1.268,9.039.989,33.545,14.882,46.218,36.822a2.02,2.02,0,0,1-3.5,2.021c-13.343-23.1-40.16-36.112-44.4-34.852-.565,4.529,11.19,28.955,35.31,42.981a2.019,2.019,0,0,1,.577,2.99,30.9,30.9,0,0,0-6.1,21.223c1.571,17.936,21.4,25.923,39.335,25.9,15.763-.086,35.226-6.959,38.2-26.036,1.167-7.5-2.146-16.047-5.719-20.811a2.022,2.022,0,0,1,.6-2.958c25.182-14.643,35.368-39.565,34.884-43.341-3.874-1.483-30.839,11.141-44.226,34.309a2.02,2.02,0,0,1-3.5-2.021c12.458-21.565,36.866-35.256,45.915-36.247,2.249-.245,3.908.186,4.916,1.285.854.932,1.116,2.388.8,4.451-1.3,8.537-13.184,30.489-34.894,43.935,3.626,5.709,6.428,14.2,5.212,22.018-3.36,21.59-24.815,29.361-42.169,29.459h-.338" transform="translate(118.723 19.918)" fill="#40210f"/>
    <path id="path_672" data-name="path 672" d="M106.693,20.534a2.059,2.059,0,0,1-.365-.032A2.022,2.022,0,0,1,104.7,18.15c1.15-6.294,6.046-13.223,16.341-13.786A17.254,17.254,0,0,1,139,17.94a2.022,2.022,0,1,1-3.957.834A13,13,0,0,0,121.264,8.4c-10,.546-12.164,8.156-12.585,10.475a2.023,2.023,0,0,1-1.987,1.657" transform="translate(151.457 6.274)" fill="#40210f"/>
    <path id="path_673" data-name="path 673" d="M116.21,34.125c-.037,0-.071,0-.108,0A2.021,2.021,0,0,1,114.192,32c.064-1.223.091-3.274.125-5.628.027-1.9.056-3.984.108-6A1.977,1.977,0,0,1,116.5,18.4a2.022,2.022,0,0,1,1.967,2.073c-.051,2-.081,4.074-.105,5.953-.034,2.42-.066,4.529-.132,5.785a2.019,2.019,0,0,1-2.016,1.914" transform="translate(165.23 26.619)" fill="#40210f"/>
    <path id="path_674" data-name="path 674" d="M109.577,34.123a2.022,2.022,0,0,1-2.016-1.916c-.066-1.25-.1-3.347-.127-5.755-.027-1.889-.056-3.969-.108-5.98a2.02,2.02,0,0,1,1.967-2.073,2.045,2.045,0,0,1,2.073,1.967c.051,2.029.081,4.126.108,6.029.032,2.344.059,4.385.122,5.6a2.02,2.02,0,0,1-1.911,2.124c-.037,0-.073,0-.108,0" transform="translate(155.298 26.621)" fill="#40210f"/>
    <path id="path_675" data-name="path 675" d="M123.733,36.042a7.575,7.575,0,0,1,7.62,7.466c0,4.2-2.741,8.087-6.94,8.087s-7.368-3.886-7.368-7.933,2.8-7.62,6.688-7.62" transform="translate(169.362 52.15)" fill="#40210f"/>
    <path id="path_676" data-name="path 676" d="M120.949,36.759a2.955,2.955,0,0,1,2.973,3.054c0,1.708-1.047,3.421-2.8,3.421a3.119,3.119,0,0,1-2.914-3.267,3.008,3.008,0,0,1,2.741-3.208" transform="translate(171.045 53.187)" fill="#fff"/>
    <path id="path_677" data-name="path 677" d="M107.893,36.042a7.588,7.588,0,0,0-7.62,7.7c0,4.145,2.741,7.855,6.94,7.855s7.368-3.886,7.368-7.933-2.8-7.62-6.688-7.62" transform="translate(145.094 52.15)" fill="#40210f"/>
    <path id="path_678" data-name="path 678" d="M105.653,36.783a3.21,3.21,0,1,0,2.682,3.149,2.908,2.908,0,0,0-2.682-3.149" transform="translate(148.491 53.222)" fill="#fff"/>
    <path id="path_679" data-name="path 679" d="M112.535,41.986c.881,0,1.539.262,1.539.675,0,.516-.9,1.258-1.49,1.258s-1.517-.734-1.517-1.248c0-.438.587-.685,1.468-.685" transform="translate(160.713 60.751)" fill="#40210f"/>
    <path id="path_680" data-name="path 680" d="M113.424,49.066c-.191,0-.379,0-.57-.017a7.715,7.715,0,0,1-5.623-2.635,1.414,1.414,0,1,1,2.2-1.774,4.915,4.915,0,0,0,3.585,1.586,6.156,6.156,0,0,0,4.556-1.512,1.414,1.414,0,0,1,1.982,0,6.03,6.03,0,0,0,8.244-.188,1.414,1.414,0,1,1,2,2,9.017,9.017,0,0,1-11.236,1.02,9.16,9.16,0,0,1-5.136,1.52" transform="translate(154.709 63.825)" fill="#40210f"/>
    <path id="path_681" data-name="path 681" d="M131.733,43.107c3.394,2.151,2.672,6.878,1.131,9.732-2.261,4.184-6,6-8.824,4.639-3.563-1.71-4.639-6.678-2.151-10.749,2.6-4.258,7.15-5.327,9.844-3.622" transform="translate(174.414 61.252)" fill="#e50012"/>
    <path id="path_682" data-name="path 682" d="M99.579,43.107c-3.394,2.151-2.672,6.878-1.131,9.732,2.261,4.184,6,6,8.824,4.639,3.563-1.71,4.639-6.678,2.151-10.75-2.6-4.258-7.152-5.327-9.844-3.622" transform="translate(140.589 61.252)" fill="#e50012"/>
    <path id="path_683" data-name="path 683" d="M102.814,30.862A49.712,49.712,0,0,1,124.7,26.127c6.883,0,15.316,1.7,21.188,4.852l.193-3.071c-5.909-3.037-14.966-4.356-21.773-4.356A48.417,48.417,0,0,0,102.846,28.3Z" transform="translate(148.771 34.079)" fill="#1a2e72"/>
    <path id="path_684" data-name="path 684" d="M146.905,32.479l-.93-.5c-5.4-2.9-13.59-4.769-20.868-4.769a48.873,48.873,0,0,0-21.59,4.664l-.986.482.049-4.079.374-.184a49.076,49.076,0,0,1,21.761-4.816c6.208,0,15.717,1.16,22.081,4.431l.394.2Zm-21.8-6.626a50.08,50.08,0,0,1,20.577,4.453l.1-1.591c-6.147-3.01-15.139-4.084-21.068-4.084a47.821,47.821,0,0,0-20.789,4.5l-.015,1.06a50.642,50.642,0,0,1,21.2-4.336" transform="translate(148.363 33.678)" fill="#1a2e72"/>
    <path id="path_685" data-name="path 685" d="M125.836,60.123l-.061,0a2.02,2.02,0,0,1-1.96-2.077c.135-4.52.538-18.269.861-23.126a2.018,2.018,0,0,1,1.5-1.818,12.742,12.742,0,0,0,7.789-6.5,9.845,9.845,0,0,0-5.315-13.84,11.343,11.343,0,0,0-8.623.352,2.02,2.02,0,0,1-1.906-3.563,15.26,15.26,0,0,1,11.914-.587,13.818,13.818,0,0,1,8.219,8.153,13.657,13.657,0,0,1-.68,11.3,16.821,16.821,0,0,1-8.941,8.131c-.3,5.626-.653,17.486-.773,21.614a2.02,2.02,0,0,1-2.019,1.96" transform="translate(169.368 11.62)" fill="#40210f"/>
    <path id="path_686" data-name="path 686" d="M111.149,60.252a2.021,2.021,0,0,1-2.014-1.877c-.159-2.244-.269-6.825-.384-11.674-.088-3.712-.179-7.529-.291-10.035a16.376,16.376,0,0,1-9.69-7.8,13.994,13.994,0,0,1-.7-11.846,13.493,13.493,0,0,1,8.141-7.891,16.08,16.08,0,0,1,12.423.443,2.021,2.021,0,1,1-1.909,3.563,12.184,12.184,0,0,0-9.12-.213,9.575,9.575,0,0,0-5.775,5.577,10.008,10.008,0,0,0,.509,8.471,12.578,12.578,0,0,0,8.5,6.157,2.02,2.02,0,0,1,1.573,1.838c.159,2.354.269,7.077.377,11.643.11,4.588.223,9.335.377,11.484a2.023,2.023,0,0,1-1.872,2.158c-.049,0-.1,0-.147,0" transform="translate(140.47 11.723)" fill="#40210f"/>
    <path id="path_687" data-name="path 687" d="M150.746,15.227c-1.705-1.862-8.667.188-17.082,5.158,1.84,6.25,3.475,17.046-.458,27.509,13.921-14.4,19.61-30.408,17.54-32.667" transform="translate(192.747 21.05)" fill="#40210f"/>
    <path id="path_688" data-name="path 688" d="M83.381,15.227c1.706-1.862,8.67.188,17.082,5.158-1.84,6.25-3.475,17.046.458,27.509C87,33.5,81.308,17.486,83.381,15.227" transform="translate(120.053 21.05)" fill="#40210f"/>
  </g>
</svg>
